<svg width="391" height="57" viewBox="0 0 391 57" fill="none" xmlns="http://www.w3.org/2000/svg">
<path d="M123.755 5.60024H120.863V14.0002H121.475V10.7602H123.755C125.291 10.7602 126.443 9.65624 126.443 8.18024C126.443 6.70424 125.279 5.60024 123.755 5.60024ZM123.731 10.1722H121.475V6.18824H123.731C124.931 6.18824 125.819 7.04024 125.819 8.18024C125.819 9.32024 124.931 10.1722 123.731 10.1722ZM133.831 10.7482C133.831 8.86424 132.511 7.40024 130.615 7.40024C128.755 7.40024 127.351 8.85224 127.351 10.7602C127.351 12.6802 128.755 14.1322 130.615 14.1322C131.971 14.1322 133.039 13.4122 133.639 12.1162H133.015C132.535 13.0282 131.683 13.5562 130.615 13.5562C129.139 13.5562 128.023 12.4882 127.939 10.9762H133.819C133.819 10.9042 133.831 10.8202 133.831 10.7482ZM130.615 7.95224C132.019 7.95224 133.111 8.93624 133.243 10.4242H127.939C128.095 8.97224 129.175 7.95224 130.615 7.95224ZM139.865 14.0002H140.609L137.789 10.6282L140.369 7.52024H139.637L137.285 10.3522H136.145V5.22824H135.557V14.0002H136.145V10.9042H137.273L139.865 14.0002ZM144.814 7.40024C143.746 7.40024 142.822 7.96424 142.354 8.84024L142.234 7.52024H141.802V14.0002H142.39V10.3042C142.39 9.00824 143.434 7.94024 144.682 7.94024C145.99 7.94024 146.758 8.80424 146.758 10.2802V14.0002H147.346V10.1602C147.346 8.51624 146.374 7.40024 144.814 7.40024ZM153.245 4.91624H152.609L151.721 6.74024H152.201L153.245 4.91624ZM155.417 10.7482C155.417 8.86424 154.097 7.40024 152.201 7.40024C150.341 7.40024 148.937 8.85224 148.937 10.7602C148.937 12.6802 150.341 14.1322 152.201 14.1322C153.557 14.1322 154.625 13.4122 155.225 12.1162H154.601C154.121 13.0282 153.269 13.5562 152.201 13.5562C150.725 13.5562 149.609 12.4882 149.525 10.9762H155.405C155.405 10.9042 155.417 10.8202 155.417 10.7482ZM152.201 7.95224C153.605 7.95224 154.697 8.93624 154.829 10.4242H149.525C149.681 8.97224 150.761 7.95224 152.201 7.95224ZM163.183 14.1322C164.623 14.1322 165.799 13.3042 166.255 11.9842H165.655C165.199 12.9802 164.287 13.5682 163.183 13.5682C161.623 13.5682 160.435 12.3562 160.435 10.7722C160.435 9.17624 161.611 7.96424 163.183 7.96424C164.287 7.96424 165.223 8.55224 165.655 9.52424H166.243C165.799 8.24024 164.647 7.40024 163.183 7.40024C161.275 7.40024 159.835 8.84024 159.835 10.7722C159.835 12.6802 161.287 14.1322 163.183 14.1322ZM173.757 10.7482C173.757 8.86424 172.437 7.40024 170.541 7.40024C168.681 7.40024 167.277 8.85224 167.277 10.7602C167.277 12.6802 168.681 14.1322 170.541 14.1322C171.897 14.1322 172.965 13.4122 173.565 12.1162H172.941C172.461 13.0282 171.609 13.5562 170.541 13.5562C169.065 13.5562 167.949 12.4882 167.865 10.9762H173.745C173.745 10.9042 173.757 10.8202 173.757 10.7482ZM170.541 7.95224C171.945 7.95224 173.037 8.93624 173.169 10.4242H167.865C168.021 8.97224 169.101 7.95224 170.541 7.95224ZM178.447 7.40024C177.379 7.40024 176.455 7.96424 175.987 8.84024L175.867 7.52024H175.435V14.0002H176.023V10.3042C176.023 9.00824 177.067 7.94024 178.315 7.94024C179.623 7.94024 180.391 8.80424 180.391 10.2802V14.0002H180.979V10.1602C180.979 8.51624 180.007 7.40024 178.447 7.40024ZM185.954 14.1322C187.898 14.1322 189.35 12.6922 189.35 10.7602C189.35 8.84024 187.898 7.40024 185.954 7.40024C184.022 7.40024 182.558 8.82824 182.558 10.7602C182.558 12.6922 184.022 14.1322 185.954 14.1322ZM185.954 13.5682C184.358 13.5682 183.158 12.3802 183.158 10.7722C183.158 9.15224 184.346 7.96424 185.954 7.96424C187.562 7.96424 188.75 9.15224 188.75 10.7602C188.75 12.3802 187.562 13.5682 185.954 13.5682ZM195.679 7.52024L193.183 13.2082L190.639 7.52024H190.027L192.931 14.0002H193.447L196.279 7.52024H195.679ZM201.304 4.91624H200.668L199.78 6.74024H200.26L201.304 4.91624ZM203.476 10.7482C203.476 8.86424 202.156 7.40024 200.26 7.40024C198.4 7.40024 196.996 8.85224 196.996 10.7602C196.996 12.6802 198.4 14.1322 200.26 14.1322C201.616 14.1322 202.684 13.4122 203.284 12.1162H202.66C202.18 13.0282 201.328 13.5562 200.26 13.5562C198.784 13.5562 197.668 12.4882 197.584 10.9762H203.464C203.464 10.9042 203.476 10.8202 203.476 10.7482ZM200.26 7.95224C201.664 7.95224 202.756 8.93624 202.888 10.4242H197.584C197.74 8.97224 198.82 7.95224 200.26 7.95224ZM211.818 7.40024C210.606 7.40024 209.586 8.00024 209.01 8.93624L208.878 7.52024H208.458V16.3042H209.046V12.6442C209.622 13.5562 210.63 14.1322 211.818 14.1322C213.75 14.1322 215.118 12.6802 215.118 10.7602C215.118 8.84024 213.75 7.40024 211.818 7.40024ZM211.782 13.5682C210.21 13.5682 209.022 12.3562 209.022 10.7602C209.022 9.16424 210.21 7.96424 211.782 7.96424C213.366 7.96424 214.53 9.15224 214.53 10.7602C214.53 12.3802 213.366 13.5682 211.782 13.5682ZM219.669 14.1322C221.613 14.1322 223.065 12.6922 223.065 10.7602C223.065 8.84024 221.613 7.40024 219.669 7.40024C217.737 7.40024 216.273 8.82824 216.273 10.7602C216.273 12.6922 217.737 14.1322 219.669 14.1322ZM219.669 13.5682C218.073 13.5682 216.873 12.3802 216.873 10.7722C216.873 9.15224 218.061 7.96424 219.669 7.96424C221.277 7.96424 222.465 9.15224 222.465 10.7602C222.465 12.3802 221.277 13.5682 219.669 13.5682ZM227.783 7.40024C226.715 7.40024 225.791 7.96424 225.323 8.84024L225.203 7.52024H224.771V14.0002H225.359V10.3042C225.359 9.00824 226.403 7.94024 227.651 7.94024C228.959 7.94024 229.727 8.80424 229.727 10.2802V14.0002H230.315V10.1602C230.315 8.51624 229.343 7.40024 227.783 7.40024ZM235.11 14.1322C236.814 14.1322 237.882 13.0162 237.882 11.2882V7.52024H237.294V11.2042C237.294 12.6562 236.466 13.5682 235.11 13.5682C233.766 13.5682 232.926 12.6562 232.926 11.2042V7.52024H232.338V11.2882C232.338 13.0162 233.418 14.1322 235.11 14.1322ZM244.384 14.0002H245.128L242.308 10.6282L244.888 7.52024H244.156L241.804 10.3522H240.664V5.22824H240.076V14.0002H240.664V10.9042H241.792L244.384 14.0002ZM251.229 7.52024L248.733 12.9682L246.093 7.52024H245.445L248.421 13.6162L248.085 14.3362C247.533 15.5002 247.137 15.7642 246.261 15.7642H245.757V16.3042H246.297C247.389 16.3042 247.977 15.8842 248.625 14.4802L251.853 7.52024H251.229ZM259.032 14.1322C260.976 14.1322 262.428 12.6922 262.428 10.7602C262.428 8.84024 260.976 7.40024 259.032 7.40024C257.1 7.40024 255.636 8.82824 255.636 10.7602C255.636 12.6922 257.1 14.1322 259.032 14.1322ZM259.032 13.5682C257.436 13.5682 256.236 12.3802 256.236 10.7722C256.236 9.15224 257.424 7.96424 259.032 7.96424C260.64 7.96424 261.828 9.15224 261.828 10.7602C261.828 12.3802 260.64 13.5682 259.032 13.5682ZM269.654 5.22824V8.82824C269.078 7.95224 268.082 7.40024 266.894 7.40024C264.974 7.40024 263.57 8.84024 263.57 10.7722C263.57 12.6802 264.974 14.1322 266.894 14.1322C268.106 14.1322 269.102 13.5562 269.678 12.6562L269.762 14.0122H270.242V5.22824H269.654ZM266.93 13.5682C265.358 13.5682 264.17 12.3682 264.17 10.7722C264.17 9.16424 265.358 7.96424 266.93 7.96424C268.514 7.96424 269.69 9.15224 269.69 10.7602C269.69 12.3682 268.514 13.5682 266.93 13.5682Z" fill="#212541"/>
<g clip-path="url(#clip0_6167_6829)">
<path d="M145.348 37.8128C145.339 35.0003 144.217 32.3059 142.225 30.3201C140.233 28.3343 137.536 27.2193 134.723 27.2194H120.899C119.918 27.2695 118.987 27.6695 118.275 28.347C117.563 29.0244 117.117 29.9344 117.019 30.9122C116.92 31.8899 117.175 32.8706 117.737 33.6765C118.3 34.4825 119.132 35.0603 120.084 35.3054L120.283 35.3526C120.316 35.3617 120.349 35.3746 120.382 35.3843C120.484 35.4138 120.584 35.4465 120.684 35.4803C120.772 35.5104 120.858 35.542 120.945 35.5758C121.049 35.6161 121.152 35.6574 121.254 35.703C121.331 35.7373 121.405 35.7744 121.479 35.8103C121.586 35.864 121.691 35.9133 121.793 35.9713C121.842 35.9986 121.888 36.0298 121.936 36.0587C122.153 36.1873 122.363 36.328 122.564 36.4799C122.618 36.5196 122.671 36.5567 122.721 36.598C122.813 36.6709 122.9 36.7493 122.99 36.8276C123.05 36.8813 123.111 36.9349 123.169 36.9886C123.25 37.0664 123.33 37.1496 123.406 37.229C123.466 37.2912 123.523 37.3551 123.58 37.4195C123.652 37.5021 123.723 37.5847 123.791 37.6706C123.848 37.743 123.902 37.817 123.956 37.8916C124.018 37.9764 124.081 38.0596 124.138 38.1476C124.196 38.2356 124.246 38.3203 124.299 38.4083C124.381 38.5473 124.46 38.6879 124.532 38.8317C124.585 38.9417 124.643 39.0517 124.693 39.1649C124.729 39.2481 124.76 39.3339 124.793 39.4192C124.834 39.5265 124.874 39.6295 124.909 39.7374C124.938 39.8249 124.963 39.9134 124.99 40.0025C125.021 40.1141 125.05 40.2264 125.076 40.3394C125.097 40.4269 125.116 40.5143 125.133 40.6029C125.156 40.7295 125.174 40.8583 125.191 40.987C125.201 41.0648 125.214 41.1416 125.221 41.2199C125.239 41.419 125.25 41.6197 125.251 41.8235C125.251 41.8327 125.251 41.8418 125.251 41.8509V41.8563C125.251 42.0709 125.238 42.2855 125.218 42.5002C125.213 42.5538 125.204 42.6075 125.198 42.6649C125.179 42.8258 125.156 42.9798 125.126 43.1349C125.114 43.195 125.101 43.254 125.088 43.3136C125.054 43.4667 125.015 43.6176 124.972 43.7664C124.957 43.8169 124.942 43.8673 124.926 43.9172C124.871 44.0896 124.809 44.2588 124.74 44.4248C124.731 44.4468 124.724 44.4693 124.714 44.4913C124.547 44.8832 124.344 45.2583 124.106 45.6117C124.099 45.6224 124.091 45.6326 124.084 45.6433C123.974 45.8036 123.858 45.9588 123.735 46.1091C123.717 46.1311 123.699 46.1525 123.681 46.174C123.562 46.3171 123.437 46.4546 123.306 46.5866C123.29 46.6032 123.274 46.6193 123.258 46.6354C122.806 47.0836 122.293 47.4655 121.734 47.7697C121.721 47.7772 121.706 47.7837 121.693 47.7912C121.525 47.881 121.354 47.9636 121.179 48.0391L121.078 48.0809C120.916 48.1475 120.751 48.2079 120.582 48.2623C120.546 48.2741 120.51 48.2864 120.475 48.2977C120.429 48.3116 120.385 48.3288 120.338 48.3417L120.13 48.3953C120.064 48.412 119.995 48.4249 119.929 48.4452C119.918 48.4485 119.907 48.4485 119.896 48.4522C119.895 48.4543 119.892 48.4557 119.889 48.456C118.952 48.7487 118.15 49.3677 117.629 50.2007C117.108 51.0337 116.903 52.0257 117.05 52.997C117.198 53.9683 117.688 54.8547 118.433 55.4955C119.177 56.1364 120.127 56.4893 121.109 56.4905H134.747C136.145 56.4901 137.528 56.2141 138.819 55.6783C140.109 55.1424 141.281 54.3573 142.268 53.3678C143.254 52.3783 144.036 51.2039 144.568 49.9118C145.1 48.6197 145.372 47.2354 145.368 45.8381L145.348 37.8128Z" fill="url(#paint0_linear_6167_6829)"/>
<g opacity="0.2">
<path opacity="0.2" d="M139.88 43.6666H129.608C129.133 43.6585 128.68 43.4639 128.347 43.125C128.014 42.786 127.827 42.3297 127.827 41.8544C127.827 41.3791 128.014 40.9228 128.347 40.5838C128.68 40.2449 129.133 40.0504 129.608 40.0422H139.88C140.356 40.0504 140.809 40.2449 141.142 40.5838C141.475 40.9228 141.662 41.3791 141.662 41.8544C141.662 42.3297 141.475 42.786 141.142 43.125C140.809 43.4639 140.356 43.6585 139.88 43.6666Z" fill="white"/>
</g>
<path d="M139.501 50.0303H135.998C135.523 50.0221 135.07 49.8276 134.737 49.4886C134.404 49.1497 134.217 48.6934 134.217 48.2181C134.217 47.7428 134.404 47.2865 134.737 46.9475C135.07 46.6085 135.523 46.414 135.998 46.4058H139.501C139.976 46.414 140.429 46.6085 140.762 46.9475C141.095 47.2865 141.282 47.7428 141.282 48.2181C141.282 48.6934 141.095 49.1497 140.762 49.4886C140.429 49.8276 139.976 50.0221 139.501 50.0303Z" fill="white"/>
<path d="M132.238 37.3027H129.019C128.781 37.3027 128.545 37.2558 128.326 37.1648C128.106 37.0737 127.906 36.9403 127.738 36.772C127.569 36.6037 127.436 36.404 127.345 36.1841C127.254 35.9643 127.207 35.7287 127.207 35.4907C127.207 35.2528 127.254 35.0172 127.345 34.7973C127.436 34.5775 127.569 34.3777 127.738 34.2095C127.906 34.0412 128.106 33.9078 128.326 33.8167C128.545 33.7256 128.781 33.6788 129.019 33.6788H132.238C132.476 33.6788 132.712 33.7256 132.932 33.8167C133.152 33.9078 133.351 34.0412 133.52 34.2095C133.688 34.3777 133.821 34.5775 133.912 34.7973C134.003 35.0172 134.05 35.2528 134.05 35.4907C134.05 35.7287 134.003 35.9643 133.912 36.1841C133.821 36.404 133.688 36.6037 133.52 36.772C133.351 36.9403 133.152 37.0737 132.932 37.1648C132.712 37.2558 132.476 37.3027 132.238 37.3027Z" fill="white"/>
<path d="M158.825 43.6105L158.28 43.5687L157.797 43.4614L157.569 43.3165L157.464 43.1915L157.381 42.9194L157.318 42.5438V41.8737L157.339 41.6226V41.3918L157.36 41.1407L157.339 40.6804L157.381 40.1781L157.339 39.5294L157.318 38.944L157.297 38.4418V35.7005L157.318 35.0518L157.296 34.5072L157.275 34.1096L157.254 33.6702L157.275 33.1261L157.254 32.5193L157.275 32.0589V31.3678L157.317 30.7406L157.254 30.1546V29.7152L157.338 29.3589L157.526 29.0869L157.714 28.9409L158.09 28.92L158.697 28.8991L159.072 28.92L159.302 28.8991L159.826 28.92H162.484L162.798 28.8782H163.091L163.32 28.8572L163.865 28.8363L164.409 28.8782L164.702 28.8572L164.827 28.8991L165.016 28.92L165.308 28.9409L165.999 29.0482L166.313 29.111L166.753 29.2779L167.171 29.4458L167.422 29.6132L167.778 29.8434L168.071 30.0522L168.364 30.2829L168.824 30.7658L169.2 31.1843L169.409 31.54L169.723 32.0423L169.911 32.4399L170.058 32.7119L170.183 33.0258L170.33 33.4443L170.435 33.8837L170.476 34.0511L170.539 34.534L170.602 35.1828L170.644 35.4966L170.707 35.7274L170.727 36.1453L170.707 36.6894L170.686 37.1916L170.602 37.7572L170.497 38.364L170.351 38.8657L170.162 39.5563L169.995 39.9319L169.807 40.3504L169.681 40.5596L169.535 40.8521L169.2 41.3124L168.844 41.7315L168.53 42.0658L168.237 42.3174L167.923 42.5476L167.463 42.7982L166.98 43.0289L166.792 43.1126L166.52 43.2199L166.247 43.3031L165.432 43.5129L164.427 43.5547H163.784L163.115 43.5756L162.57 43.5547L161.462 43.6175L160.771 43.6384L160.185 43.6175L159.788 43.6384L158.825 43.6105ZM163.993 41.2459L164.517 41.1617L165.019 41.0576L165.417 40.9948L165.939 40.785L166.358 40.5553L166.923 40.1572L167.342 39.6974L167.717 39.1737L167.947 38.6087L168.094 38.0437L168.199 37.5415L168.22 37.1659V35.7837L168.178 35.1768L168.115 34.7165L168.031 34.3189L167.885 33.8167L167.738 33.3981L167.571 33.1052L167.383 32.8122L167.007 32.3519L166.4 31.8496L165.917 31.5776L165.624 31.452L164.852 31.2439L164.559 31.2235L164.036 31.2025H162.403L161.588 31.18L160.96 31.2009L160.688 31.2632L160.313 31.305L159.978 31.3893L159.832 31.5357L159.79 31.7659L159.769 32.0798L159.79 32.4774V32.7704L159.769 33.146L159.745 33.712V35.0534L159.766 35.5761V36.9786L159.745 37.564V39.0084L159.788 39.4264L159.808 39.9705L159.829 40.3268V40.8483L159.892 41.1209L160.206 41.2046L160.499 41.1622L160.855 41.1831L161.273 41.2255H161.859L162.529 41.2464L163.993 41.2459Z" fill="#212541"/>
<path d="M181.089 43.8405H180.733L180.419 43.8196L180 43.7568H179.477L179.102 43.6731L178.892 43.6103L178.62 43.5475L178.244 43.4005L177.742 43.2127L177.323 42.9825L177.114 42.8752L176.884 42.7282L176.612 42.5823L176.424 42.4358L176.214 42.3102L175.921 42.0377L175.566 41.7243L175.336 41.4936L174.584 40.5943L174.291 40.0288L174.04 39.5689L173.768 39.086L173.643 38.6251L173.535 38.3536L173.428 37.8509L173.345 37.4323L173.324 37.1812L173.261 36.8255L173.24 36.5325L173.261 36.1768V35.5742L173.324 35.1766L173.366 34.801L173.533 34.2779L173.596 33.9426L173.763 33.4596L173.973 32.9156L174.161 32.6221L174.37 32.1622L174.767 31.5345L175.123 31.0516L175.333 30.8632L175.479 30.6744L175.689 30.4447L175.898 30.2354L176.065 30.1517L176.295 29.921L176.86 29.6077L177.363 29.356L177.952 29.0867L178.392 28.9617L178.664 28.8361L179.229 28.6472L179.752 28.5635L180.087 28.5013L180.589 28.5222L181.321 28.5013L181.824 28.5431H182.054L182.43 28.6054L182.848 28.7127L183.12 28.776L183.308 28.8597L183.622 28.967L183.915 29.0743L184.208 29.2208L184.543 29.4086L184.983 29.6393L185.568 30.0149L186.008 30.3712L186.448 30.7897L186.971 31.4175L187.306 31.8151L187.452 32.0238L187.578 32.2755L187.724 32.4847L187.913 32.8603L188.122 33.3432L188.247 33.7628L188.355 34.0971L188.396 34.2854L188.48 34.5575L188.585 35.0811L188.627 35.4154V35.7089L188.648 36.0432L188.606 36.3995L188.564 36.943L188.522 37.2778L188.501 37.6132L188.438 38.0311L188.376 38.2828L188.292 38.638L188.104 39.1402L187.936 39.6011L187.748 39.9982L187.601 40.2498L187.494 40.4591L187.327 40.6678L187.18 40.8561L187.055 41.045L186.971 41.191L186.845 41.3374L186.616 41.5682L186.344 41.7774L186.155 41.9652L186.009 42.0908L185.82 42.2378L185.653 42.3843L185.444 42.5093L185.297 42.6348L185.046 42.8023L184.627 43.033L184.167 43.3045L183.811 43.451L183.581 43.5352L183.141 43.6817L182.618 43.8282L182.179 43.8909H181.572L181.089 43.8405ZM181.8 41.4126L182.073 41.3916L182.198 41.3707L182.302 41.3079L182.386 41.2666L182.658 41.2248L182.93 41.0992L183.181 41.0155L183.579 40.8057L183.998 40.5337L184.541 40.1361L184.855 39.8013L184.962 39.6762L185.13 39.4246L185.444 39.0275L185.862 38.3998L185.988 37.9389L186.072 37.5413L186.134 37.0814L186.176 36.5159L186.215 36.2229L186.174 35.6794L186.028 34.9255L185.881 34.4426L185.672 34.0032L185.565 33.6474L185.439 33.4173L185.272 33.083L185.021 32.7686L184.874 32.5797L184.644 32.35L183.932 31.785L183.263 31.3874L182.865 31.22L182.426 31.0945L182.258 31.0526L181.986 30.9689L181.63 30.8852H180.48L180.166 30.948L179.79 30.9899L179.307 31.1363L178.617 31.4293L177.447 32.1021L177.238 32.3323L177.071 32.5416L176.945 32.6457L176.694 33.002L176.506 33.3577L176.401 33.5042L176.317 33.7349L176.171 34.0064L176.045 34.3418L175.938 34.676L175.896 34.969L175.789 35.4294L175.748 35.952L175.768 36.2036L175.789 36.4966L175.831 36.8314V37.1458L175.852 37.2531L175.915 37.4833L175.999 37.8589L176.061 38.1728L176.313 38.6332L176.815 39.3844L177.212 39.8866L177.359 40.054L177.694 40.3475L178.112 40.619L178.259 40.7027L178.342 40.7445L178.718 40.9543L179.157 41.1631L179.513 41.2704L180.1 41.3745L180.685 41.4582L181.187 41.4791L181.8 41.4126Z" fill="#212541"/>
<path d="M192.849 43.5896L192.473 43.4426L192.347 43.2757L192.243 43.0037L192.264 42.5208L192.243 41.8088L192.264 41.1601V39.3411L192.222 38.9017L192.243 38.5041L192.222 38.2111L192.243 37.6885V36.5559L192.284 35.7403L192.222 35.1747L192.264 34.5883L192.243 33.9396L192.264 33.2077V32.5193L192.243 32.1008L192.284 31.8078L192.264 31.4939V30.343L192.243 30.0077L192.264 29.7571L192.326 29.485L192.431 29.2334L192.682 29.0038L192.954 28.92H193.478L194.356 28.941L194.628 28.92L195.111 28.941L195.634 28.92L196.074 28.8782L196.533 28.8991H196.909L197.202 28.8573L197.685 28.8782L198.146 28.8573H198.502L199.694 28.8154H200.008L200.134 28.7945L201.431 28.8363H201.85L202.519 28.8782L202.833 28.941L203.084 29.0665L203.251 29.213L203.377 29.4223L203.461 29.8408V30.343L203.419 30.7406L203.294 31.0126L203.063 31.1382L202.645 31.201H200.908L200.385 31.18H199.862L198.543 31.201L198.083 31.2423H197.455L197.225 31.2632H195.676L195.027 31.3051L194.755 31.4124L194.693 31.9141L194.713 32.5214L194.693 32.7726V33.7384L194.713 34.1354L194.798 34.5539L194.923 34.7632L195.048 34.8469L195.488 34.8888L196.032 34.9097L196.346 34.8888L197.434 34.9306L197.79 34.9097H198.104L198.355 34.8678H200.134L200.573 34.9306L200.741 34.9939L200.928 35.1399L201.159 35.4747L201.263 35.9141V36.3332L201.096 36.8976L200.845 37.1278L200.362 37.2534H199.818L199.42 37.2743L197.746 37.3162L197.16 37.3371L196.804 37.3162L196.511 37.3371L196.239 37.3162L195.883 37.358L195.465 37.3789L195.13 37.4417L194.9 37.5463L194.732 37.8184L194.69 38.0486V38.781L194.732 39.1786V39.5767L194.753 39.8063L194.775 40.3091L194.796 40.9997L194.753 41.6484V42.6941L194.711 42.9248L194.628 43.1969L194.397 43.4056L194.147 43.5317L193.686 43.5945L193.267 43.6154L192.849 43.5896Z" fill="#212541"/>
<path d="M207.56 43.5896L207.185 43.4426L207.059 43.2757L206.955 43.0037L206.975 42.5208L206.955 41.8088L206.975 41.1601V39.3411L206.934 38.9017L206.955 38.5041L206.934 38.2111L206.955 37.6885V36.5559L206.996 35.7403L206.934 35.1747L206.975 34.5883L206.955 33.9396L206.975 33.2077V32.5193L206.955 32.1008L206.996 31.8078L206.975 31.4939V30.343L206.955 30.0077L206.975 29.7571L207.038 29.485L207.142 29.2334L207.393 29.0038L207.666 28.92H208.189L209.068 28.941L209.34 28.92L209.823 28.941L210.346 28.92L210.786 28.8782L211.246 28.8991H211.622L211.914 28.8573L212.397 28.8782L212.858 28.8573H213.214L214.407 28.8154H214.721L214.846 28.7945L216.143 28.8363H216.562L217.231 28.8782L217.545 28.941L217.796 29.0665L217.964 29.213L218.09 29.4223L218.173 29.8408V30.343L218.131 30.7406L218.006 31.0126L217.775 31.1382L217.357 31.201H215.62L215.097 31.18H214.574L213.255 31.201L212.795 31.2423H212.167L211.937 31.2632H210.389L209.739 31.3051L209.467 31.4124L209.404 31.9141L209.425 32.5214L209.404 32.7726V33.7384L209.425 34.1354L209.51 34.5539L209.635 34.7632L209.76 34.8469L210.2 34.8888L210.744 34.9097L211.058 34.8888L212.146 34.9306L212.502 34.9097H212.816L213.067 34.8678H214.846L215.285 34.9306L215.453 34.9939L215.641 35.1399L215.871 35.4747L215.976 35.9141V36.3332L215.808 36.8976L215.557 37.1278L215.074 37.2534H214.53L214.132 37.2743L212.458 37.3162L211.872 37.3371L211.516 37.3162L211.223 37.3371L210.951 37.3162L210.596 37.358L210.177 37.3789L209.842 37.4417L209.612 37.5463L209.444 37.8184L209.402 38.0486V38.781L209.444 39.1786V39.5767L209.465 39.8063L209.487 40.3091L209.507 40.9997L209.465 41.6484V42.6941L209.423 42.9248L209.34 43.1969L209.109 43.4056L208.859 43.5317L208.398 43.5945L207.98 43.6154L207.56 43.5896Z" fill="#212541"/>
<path d="M229.887 43.5895L229.741 43.5685L229.553 43.5895L229.07 43.5476L228.651 43.5685L228.379 43.5476L227.794 43.5685H227.354L226.956 43.5476H226.621L226.328 43.5895L225.994 43.5685L225.889 43.5895L225.429 43.5476H224.801L224.11 43.5267L223.359 43.5476H222.689L222.355 43.5267L222.02 43.3378L221.769 42.9198L221.727 42.4176V40.9319L221.706 40.2832L221.727 39.8003V39.1526L221.706 38.7551L221.685 38.3161L221.664 38.1064V37.8134L221.685 37.4995V36.9978L221.664 36.9345L221.685 36.7462L221.664 36.4951V36.3073L221.642 35.8045L221.663 34.9256L221.684 34.3402V33.9834L221.663 33.3771V32.0164L221.621 31.6612L221.642 31.3891V31.1364L221.663 30.7388V30.5086L221.684 30.1111L221.705 29.5461L221.789 29.2735L221.935 29.0438L222.165 28.899L222.333 28.8153L222.563 28.7734H223.17L224.048 28.8153H225.43L226.016 28.7943L226.458 28.7756L227.106 28.7541H228.467L228.927 28.8174H229.387L229.722 28.7756L230.308 28.7965L230.643 28.8174L231.48 28.7756L231.711 28.7965L232.024 28.7756L232.359 28.8174L232.673 28.943L232.841 29.1941L232.966 29.6126L233.007 30.0515L232.987 30.3241L232.862 30.6997L232.631 30.9932L232.401 31.0774L231.918 31.1187L231.167 31.1396L230.728 31.1606L230.536 31.1364L229.866 31.1783H228.883L228.087 31.1573L227.604 31.1364H227.394L226.976 31.1783L225.867 31.1992H225.492L225.031 31.2201H224.633L224.258 31.3242L224.195 31.6596L224.174 32.0148L224.132 32.1618V32.5175L224.111 33.0004L224.153 33.5236L224.132 34.0677L224.239 34.5506L224.49 34.697H224.657L225.117 34.7598L225.661 34.718H226.017L226.457 34.7598L226.917 34.718L228.508 34.697H229.658L229.972 34.718L230.328 34.8253L230.58 35.0769L230.663 35.306L230.705 35.5158L230.726 35.6838L230.768 36.1667L230.705 36.6056L230.559 36.8572L230.14 37.067H229.03L227.817 37.1293L227.148 37.1089H226.917L226.059 37.088L225.808 37.1089L225.432 37.088L224.931 37.1089L224.679 37.1502L224.407 37.2339L224.261 37.3595L224.24 37.653L224.219 37.9663L224.177 38.3226V38.7824L224.198 39.0968V39.4939L224.177 39.8287V40.3943L224.365 40.9383L224.951 41.1889H226.416L227.002 41.168L227.588 41.1889L228.781 41.168L229.22 41.1267H230.476L230.727 41.168H231.125L231.773 41.1889L232.297 41.2313H232.569L232.736 41.2731L232.924 41.3982L233.05 41.587L233.113 41.9626L233.092 42.4026V42.6532L233.05 42.8839L232.966 43.135L232.841 43.3019L232.694 43.3856L232.485 43.4484L231.439 43.5557L230.894 43.6184H230.308L229.887 43.5895Z" fill="#212541"/>
<path d="M247.151 43.7359L246.942 43.6104L246.775 43.4634L246.544 43.2128L246.293 42.8571L246.126 42.6473L245.958 42.4176L245.791 42.166L245.602 41.8945L245.477 41.6852L245.309 41.4754L245.079 41.1406L244.744 40.765L244.515 40.472L244.326 40.2L244.054 39.8652L243.74 39.4896L243.489 39.1339L243.154 38.7363L242.945 38.4438L242.82 38.2764L242.673 38.1691L242.463 38.0226L242.254 37.9153L242.024 37.8735L241.752 37.8316L241.564 37.8525L240.266 37.8107L239.764 37.8525L239.345 37.999L239.241 38.3344L239.199 38.8988L239.157 39.3817L239.136 39.6334L239.115 40.1769V40.596L239.136 41.1814L239.115 41.3488V41.7469L239.094 42.1021V42.5421L239.052 42.8351L239.011 43.1699L238.903 43.3786L238.799 43.5047L238.673 43.5675L238.464 43.6302H238.213L237.837 43.6721L237.377 43.6302L237.147 43.5884L236.937 43.5047L236.749 43.1699L236.644 42.8769V42.3747L236.623 41.8725L236.603 41.6632L236.665 40.8466V40.3449L236.644 39.9264L236.603 39.5915V38.1691L236.623 37.7721L236.644 37.5204L236.623 37.353V36.391L236.644 35.9928V35.1767L236.623 34.7373V34.4443L236.665 34.2351L236.623 33.9834V33.5654L236.603 33.4189L236.623 33.2929L236.644 33.0847V32.7091L236.623 32.6248L236.665 32.3115V31.3049L236.623 31.0962L236.665 30.8869L236.603 30.4893V30.1137L236.623 29.6952L236.707 29.3389L236.833 29.1511L236.958 29.0438L237.189 28.9199L237.796 28.8362L238.717 28.878L239.449 28.8571L239.932 28.8362H240.267L240.497 28.8571L240.853 28.8362L241.336 28.8152L242.403 28.8362H242.675L243.072 28.8152H244.035L244.518 28.8362L245.647 28.9435L245.899 29.0063L246.275 29.1318L246.757 29.3405L247.28 29.655L247.574 29.9474L247.741 30.1363L248.055 30.4711L248.243 30.8268L248.347 31.1616L248.494 31.5174L248.602 31.8103L248.685 31.9772L248.727 32.1661L248.769 32.3335L248.748 32.5841L248.769 32.8566L248.79 33.3588L248.811 34.0075L248.79 34.3214L248.748 34.4888L248.685 34.719L248.602 34.9492L248.455 35.3677L248.246 35.8506L248.12 36.039L247.994 36.2482L247.765 36.4993L247.555 36.6877L247.346 36.9179L246.99 37.148L246.739 37.2736L246.383 37.5247L245.944 37.7136L245.819 37.8386L245.839 37.9459L245.86 38.0296L245.985 38.2389L246.216 38.6145L246.509 38.9707L246.718 39.2213L246.825 39.4096L246.992 39.5985L247.62 40.4978L247.85 40.7908L248.102 41.1261L248.31 41.3767L248.478 41.6493L248.708 41.9422L248.855 42.3178L248.813 42.4643L248.729 42.7358L248.478 43.1543L248.185 43.3426L247.83 43.5943L247.369 43.7826L247.151 43.7359ZM244.325 35.4697L244.514 35.4488L244.744 35.4278L244.912 35.4069L245.121 35.4278L245.309 35.3441L245.456 35.2808L245.644 35.2186L245.77 35.1113L245.916 34.9648L246.041 34.7974L246.209 34.3585L246.292 33.9179L246.334 33.7307L246.355 33.4163L246.397 33.1651L246.355 32.8513L246.251 32.4757L246.146 32.1409L245.895 31.7438L245.54 31.5131L245.247 31.4294L244.849 31.3033L244.451 31.2824L244.137 31.2614L243.95 31.2437H243.761L243.532 31.2233L243.28 31.2646H241.879L241.585 31.2437H241.25L240.875 31.2646L240.561 31.2024H239.912L239.409 31.2646L239.284 31.3065L239.221 31.4535L239.2 31.7261L239.179 32.2696V32.9393L239.158 33.4222L239.179 34.0918L239.158 34.7196L239.221 35.0952L239.535 35.2824L239.807 35.3457L240.079 35.3667L240.455 35.3248L240.685 35.3667L241.145 35.3876H241.585L241.71 35.4085L242.171 35.3876H242.735L243.614 35.4713L244.325 35.4697Z" fill="#212541"/>
<path d="M259.622 43.8406H259.267L258.953 43.8196L258.534 43.7569H258.011L257.635 43.6732L257.426 43.6104L257.154 43.5476L256.778 43.4006L256.276 43.2128L255.857 42.9826L255.648 42.8753L255.418 42.7283L255.145 42.5823L254.957 42.4358L254.748 42.3103L254.455 42.0377L254.099 41.7244L253.869 41.4936L253.118 40.5944L252.824 40.0288L252.573 39.569L252.301 39.0861L252.175 38.6252L252.071 38.3537L251.967 37.8509L251.882 37.4324L251.861 37.1813L251.799 36.8256L251.778 36.5326L251.799 36.1769V35.5743L251.861 35.1767L251.903 34.8011L252.071 34.278L252.134 33.9426L252.301 33.4597L252.51 32.9156L252.699 32.6221L252.908 32.1623L253.306 31.5345L253.662 31.0516L253.87 30.8633L254.017 30.6744L254.226 30.4448L254.436 30.2355L254.603 30.1518L254.833 29.9211L255.398 29.6077L255.901 29.3561L256.486 29.084L256.926 28.959L257.198 28.8335L257.763 28.6446L258.286 28.5609L258.621 28.4987L259.123 28.5196L259.856 28.4987L260.358 28.5405H260.588L260.964 28.6028L261.382 28.7101L261.654 28.7734L261.843 28.8571L262.157 28.9644L262.45 29.0717L262.742 29.2182L263.077 29.406L263.517 29.6367L264.103 30.0123L264.542 30.3686L264.981 30.7871L265.505 31.4149L265.84 31.8125L265.986 32.0212L266.112 32.2728L266.258 32.4821L266.447 32.8577L266.656 33.3406L266.782 33.7602L266.886 34.0945L266.928 34.2828L267.011 34.5548L267.119 35.0785L267.16 35.4128V35.7063L267.181 36.0406L267.14 36.3968L267.098 36.9404L267.056 37.2752L267.035 37.6105L266.972 38.0285L266.909 38.2802L266.826 38.6354L266.637 39.1376L266.47 39.5985L266.281 39.9956L266.135 40.2472L266.028 40.4565L265.86 40.6652L265.714 40.8535L265.588 41.0424L265.505 41.1883L265.38 41.3348L265.149 41.5655L264.877 41.7748L264.689 41.9626L264.542 42.0881L264.354 42.2352L264.186 42.3816L263.977 42.5067L263.831 42.6322L263.579 42.7996L263.161 43.0303L262.701 43.3018L262.345 43.4483L262.115 43.5326L261.675 43.6791L261.153 43.8255L260.713 43.8883H260.106L259.622 43.8406ZM260.334 41.4126L260.606 41.3917L260.731 41.3708L260.836 41.308L260.92 41.2667L261.192 41.2248L261.464 41.0993L261.715 41.0156L262.113 40.8058L262.531 40.5337L263.075 40.1361L263.389 39.8013L263.496 39.6763L263.663 39.4247L263.977 39.0276L264.396 38.3998L264.521 37.9389L264.605 37.5413L264.668 37.0815L264.709 36.516L264.752 36.223L264.709 35.6795L264.563 34.9256L264.417 34.4427L264.207 34.0032L264.103 33.6475L263.977 33.4173L263.81 33.083L263.559 32.7686L263.412 32.5797L263.182 32.3501L262.471 31.7851L261.801 31.3875L261.403 31.2201L260.964 31.0945L260.796 31.0527L260.524 30.969L260.169 30.8853H259.018L258.704 30.9481L258.328 30.9899L257.845 31.1364L257.155 31.4294L255.981 32.1022L255.772 32.3324L255.605 32.5416L255.478 32.6457L255.227 33.002L255.04 33.3578L254.935 33.5042L254.851 33.735L254.705 34.0065L254.579 34.3418L254.472 34.6761L254.431 34.9691L254.326 35.4294L254.284 35.952L254.305 36.2037L254.326 36.4966L254.368 36.8315V37.1459L254.389 37.2532L254.451 37.4834L254.535 37.859L254.598 38.1729L254.849 38.6332L255.351 39.3844L255.749 39.8866L255.895 40.054L256.23 40.3475L256.649 40.619L256.795 40.7027L256.879 40.7446L257.254 40.9544L257.694 41.1631L258.05 41.2704L258.636 41.3745L259.221 41.4582L259.724 41.4792L260.334 41.4126Z" fill="#212541"/>
<path d="M157.167 51.023H157.947V55.1647H157.167V51.023ZM157.523 52.806H158.847C158.933 52.8077 159.019 52.7856 159.093 52.7421C159.165 52.6989 159.223 52.636 159.26 52.5608C159.301 52.4774 159.322 52.3854 159.32 52.2925C159.321 52.1987 159.302 52.1058 159.262 52.021C159.226 51.9453 159.168 51.8819 159.096 51.8386C159.021 51.7949 158.934 51.7728 158.847 51.7747H157.523V51.0235H158.827C159.065 51.0192 159.299 51.0745 159.51 51.1845C159.702 51.2858 159.86 51.4404 159.967 51.6298C160.073 51.8357 160.129 52.0641 160.129 52.296C160.129 52.5278 160.073 52.7562 159.967 52.9621C159.86 53.1508 159.702 53.3046 159.51 53.4048C159.299 53.5125 159.064 53.5664 158.827 53.5615H157.523V52.806Z" fill="url(#paint1_linear_6167_6829)"/>
<path d="M162.491 51.023H163.271V55.1647H162.491V51.023ZM162.773 51.023H165.266V51.7742H162.773V51.023ZM162.773 52.7325H164.952V53.4837H162.773V52.7325ZM162.773 54.413H165.266V55.1642H162.773V54.413Z" fill="url(#paint2_linear_6167_6829)"/>
<path d="M167.729 51.023H168.51V55.1647H167.729V51.023ZM168.199 53.5448L169.859 51.023H170.842L168.298 54.5611L168.199 53.5448ZM168.887 53.0667L169.56 52.6423L171.015 55.1642H170.09L168.887 53.0667Z" fill="url(#paint3_linear_6167_6829)"/>
<path d="M173.278 51.023H174.232L175.773 54.1962L175.705 54.2703V51.023H176.451V55.162H175.491L173.956 52.0371L174.023 51.9631V55.162H173.277L173.278 51.023Z" fill="url(#paint4_linear_6167_6829)"/>
<path d="M179.112 51.0231H179.892V55.1648H179.112V51.0231ZM179.394 51.0231H181.887V51.7743H179.394V51.0231ZM179.394 52.7326H181.574V53.4837H179.394V52.7326ZM179.394 54.4131H181.887V55.1643H179.394V54.4131ZM180.199 50.288L180.985 49.5905L181.504 50.1238L180.664 50.7677L180.199 50.288Z" fill="url(#paint5_linear_6167_6829)"/>
<path d="M188.27 55.0263C188.048 54.9084 187.869 54.7244 187.757 54.4999C187.633 54.2391 187.572 53.9523 187.581 53.6634V52.527C187.572 52.2383 187.633 51.9517 187.757 51.691C187.869 51.4662 188.049 51.2815 188.27 51.1625C188.52 51.0347 188.798 50.972 189.079 50.9801C189.322 50.9761 189.562 51.0341 189.776 51.1486C189.985 51.2644 190.161 51.4327 190.285 51.6368C190.427 51.8738 190.521 52.1366 190.563 52.41H189.753C189.728 52.2858 189.68 52.1672 189.612 52.0602C189.555 51.9686 189.476 51.8923 189.382 51.8381C189.289 51.7859 189.185 51.7593 189.078 51.7608C188.947 51.7564 188.818 51.7874 188.703 51.8504C188.599 51.9115 188.517 52.0032 188.467 52.1128C188.41 52.2433 188.383 52.3847 188.387 52.527V53.6634C188.383 53.8054 188.41 53.9465 188.467 54.0766C188.517 54.1857 188.599 54.2768 188.703 54.3374C188.818 54.4004 188.947 54.4313 189.078 54.427C189.186 54.4286 189.292 54.4026 189.386 54.3513C189.48 54.2984 189.56 54.2226 189.617 54.1308C189.684 54.0225 189.73 53.9028 189.753 53.7777H190.562C190.519 54.0511 190.424 54.3137 190.281 54.5509C190.157 54.755 189.983 54.9234 189.774 55.0397C189.56 55.1544 189.32 55.2122 189.077 55.2077C188.797 55.2155 188.519 55.1531 188.27 55.0263Z" fill="url(#paint6_linear_6167_6829)"/>
<path d="M192.969 51.023H193.749V55.1647H192.969V51.023ZM193.251 51.023H195.743V51.7742H193.251V51.023ZM193.251 52.7325H195.43V53.4837H193.251V52.7325ZM193.251 54.413H195.743V55.1642H193.251V54.413Z" fill="url(#paint7_linear_6167_6829)"/>
<path d="M198.205 51.023H199.159L200.7 54.1962L200.631 54.2703V51.023H201.378V55.162H200.418L198.883 52.0371L198.951 51.9631V55.162H198.205V51.023Z" fill="url(#paint8_linear_6167_6829)"/>
<path d="M204.673 55.0183C204.448 54.8946 204.263 54.7082 204.142 54.4817C204.013 54.2344 203.948 53.9585 203.955 53.6796V52.5072C203.948 52.2285 204.013 51.9527 204.142 51.7056C204.263 51.4787 204.448 51.2923 204.673 51.169C204.919 51.0442 205.191 50.9791 205.467 50.9791C205.742 50.9791 206.014 51.0442 206.26 51.169C206.486 51.2921 206.67 51.4787 206.791 51.7056C206.92 51.9527 206.985 52.2284 206.979 52.5072V53.6807C206.985 53.9596 206.92 54.2355 206.791 54.4828C206.67 54.7094 206.485 54.8958 206.26 55.0194C206.014 55.1439 205.742 55.2088 205.467 55.2088C205.191 55.2088 204.919 55.1439 204.673 55.0194V55.0183ZM205.837 54.3374C205.943 54.2785 206.029 54.1896 206.084 54.082C206.143 53.9639 206.173 53.8329 206.171 53.7005V52.4873C206.173 52.355 206.143 52.2239 206.084 52.1058C206.028 51.9983 205.943 51.9095 205.837 51.8504C205.723 51.7916 205.596 51.7608 205.467 51.7608C205.338 51.7608 205.211 51.7916 205.097 51.8504C204.991 51.9093 204.905 51.9982 204.85 52.1058C204.79 52.224 204.761 52.355 204.764 52.4873V53.7005C204.761 53.8328 204.79 53.9639 204.85 54.082C204.905 54.1897 204.991 54.2787 205.097 54.3374C205.211 54.3963 205.338 54.427 205.467 54.427C205.596 54.427 205.723 54.3963 205.837 54.3374Z" fill="url(#paint9_linear_6167_6829)"/>
<path d="M209.127 51.023H209.932L210.812 53.7863L211.693 51.023H212.498L211.119 55.1647H210.509L209.127 51.023Z" fill="url(#paint10_linear_6167_6829)"/>
<path d="M214.761 51.0231H215.541V55.1648H214.761V51.0231ZM215.042 51.0231H217.535V51.7743H215.04L215.042 51.0231ZM215.042 52.7326H217.221V53.4837H215.04L215.042 52.7326ZM215.042 54.4131H217.535V55.1643H215.04L215.042 54.4131ZM215.847 50.288L216.633 49.5905L217.152 50.1238L216.311 50.7677L215.847 50.288Z" fill="url(#paint11_linear_6167_6829)"/>
<path d="M223.311 51.023H224.091V55.1647H223.311V51.023ZM223.666 52.806H224.991C225.077 52.8077 225.163 52.7856 225.237 52.7421C225.309 52.6989 225.367 52.6359 225.404 52.5608C225.445 52.4776 225.466 52.3855 225.464 52.2925C225.466 52.1987 225.446 52.1057 225.405 52.021C225.369 51.9454 225.312 51.882 225.241 51.8386C225.165 51.7949 225.078 51.7728 224.991 51.7747H223.667V51.0235H224.972C225.209 51.0192 225.444 51.0746 225.654 51.1845C225.847 51.2857 226.006 51.4404 226.112 51.6298C226.218 51.8358 226.273 52.0642 226.273 52.296C226.273 52.5277 226.218 52.7561 226.112 52.9621C226.005 53.1509 225.846 53.3046 225.654 53.4048C225.443 53.5125 225.209 53.5663 224.972 53.5615H223.667L223.666 52.806Z" fill="url(#paint12_linear_6167_6829)"/>
<path d="M229.27 55.0183C229.045 54.8944 228.86 54.7081 228.738 54.4818C228.609 54.2344 228.545 53.9585 228.551 53.6796V52.5072C228.545 52.2285 228.609 51.9527 228.738 51.7056C228.86 51.4789 229.044 51.2925 229.27 51.169C229.515 51.0442 229.787 50.9791 230.063 50.9791C230.339 50.9791 230.61 51.0442 230.856 51.169C231.082 51.292 231.267 51.4786 231.388 51.7056C231.517 51.9527 231.582 52.2285 231.576 52.5072V53.6807C231.582 53.9596 231.517 54.2355 231.388 54.4828C231.267 54.7095 231.082 54.896 230.856 55.0194C230.61 55.1439 230.339 55.2088 230.063 55.2088C229.787 55.2088 229.516 55.1439 229.27 55.0194V55.0183ZM230.433 54.3374C230.539 54.2788 230.625 54.1899 230.68 54.082C230.74 53.964 230.77 53.8329 230.767 53.7005V52.4874C230.77 52.355 230.74 52.2239 230.68 52.1059C230.625 51.9981 230.539 51.9092 230.433 51.8505C230.319 51.7916 230.192 51.7609 230.063 51.7609C229.934 51.7609 229.808 51.7916 229.693 51.8505C229.588 51.9095 229.502 51.9984 229.447 52.1059C229.387 52.224 229.357 52.355 229.36 52.4874V53.7005C229.357 53.8329 229.387 53.9639 229.447 54.082C229.502 54.1896 229.587 54.2785 229.693 54.3374C229.808 54.3963 229.934 54.427 230.063 54.427C230.192 54.427 230.319 54.3963 230.433 54.3374Z" fill="url(#paint13_linear_6167_6829)"/>
<path d="M234.096 51.023H235.05L236.591 54.1962L236.522 54.2703V51.023H237.269V55.162H236.309L234.775 52.0371L234.843 51.963V55.162H234.097L234.096 51.023Z" fill="url(#paint14_linear_6167_6829)"/>
<path d="M240.564 55.0263C240.342 54.909 240.161 54.725 240.049 54.4999C239.925 54.2401 239.864 53.9545 239.872 53.6666V51.023H240.652V53.6865C240.646 53.7866 240.66 53.887 240.693 53.9817C240.725 54.0765 240.777 54.1638 240.843 54.2386C240.915 54.3066 240.999 54.3593 241.091 54.3931C241.184 54.427 241.282 54.4415 241.38 54.4355C241.479 54.4417 241.578 54.4275 241.672 54.3936C241.765 54.3597 241.85 54.3069 241.922 54.2386C241.99 54.164 242.041 54.0768 242.074 53.982C242.108 53.8872 242.121 53.7867 242.115 53.6865V51.023H242.895V53.6666C242.903 53.9546 242.842 54.2404 242.717 54.4999C242.604 54.7252 242.422 54.9093 242.199 55.0263C241.943 55.1458 241.663 55.2077 241.381 55.2077C241.098 55.2077 240.819 55.1458 240.562 55.0263H240.564Z" fill="url(#paint15_linear_6167_6829)"/>
<path d="M245.445 51.023H246.225V55.1647H245.445V51.023ZM245.915 53.5448L247.576 51.023H248.558L246.015 54.5611L245.915 53.5448ZM246.604 53.0668L247.277 52.6424L248.732 55.1642H247.806L246.604 53.0668Z" fill="url(#paint16_linear_6167_6829)"/>
<path d="M252.453 53.5648V55.1632H251.673V53.5648L250.454 51.0215H251.271L252.064 52.8045L252.855 51.0215H253.673L252.453 53.5648Z" fill="url(#paint17_linear_6167_6829)"/>
<path d="M271.453 27.405C271.591 27.323 271.703 27.2022 271.774 27.0574C271.853 26.8951 271.892 26.7166 271.888 26.5364C271.892 26.3561 271.853 26.1776 271.774 26.0154C271.703 25.8708 271.591 25.7499 271.453 25.6671C271.306 25.5828 271.139 25.5404 270.97 25.5443H269.517V28.8629H270.141V27.5285H270.521L271.268 28.8629H272.026L271.233 27.4947C271.31 27.4752 271.384 27.445 271.453 27.405ZM270.144 26.1463H270.922C270.983 26.1449 271.043 26.1617 271.094 26.1946C271.144 26.2281 271.183 26.2757 271.206 26.3314C271.234 26.396 271.248 26.4659 271.246 26.5364C271.246 26.6069 271.232 26.6766 271.204 26.7413C271.18 26.7971 271.141 26.8448 271.091 26.8787C271.041 26.9109 270.982 26.9276 270.922 26.9264H270.144V26.1463Z" fill="#212541"/>
<path d="M270.677 24.0003C270.02 23.9998 269.377 24.1942 268.83 24.5591C268.283 24.9239 267.857 25.4427 267.605 26.0499C267.353 26.657 267.287 27.3253 267.415 27.9701C267.543 28.6148 267.859 29.2072 268.324 29.6721C268.789 30.1371 269.381 30.4538 270.026 30.5822C270.67 30.7105 271.339 30.6448 271.946 30.3933C272.553 30.1418 273.072 29.7158 273.437 29.1692C273.803 28.6227 273.998 27.98 273.997 27.3227C273.996 26.4423 273.646 25.5982 273.024 24.9754C272.401 24.3527 271.558 24.002 270.677 24.0003ZM270.677 30.2158C270.105 30.2163 269.545 30.0469 269.069 29.7293C268.593 29.4117 268.222 28.96 268.003 28.4313C267.783 27.9027 267.726 27.3209 267.837 26.7596C267.949 26.1982 268.224 25.6825 268.629 25.2777C269.033 24.8729 269.549 24.5971 270.11 24.4853C270.671 24.3735 271.253 24.4307 271.782 24.6496C272.31 24.8685 272.762 25.2393 273.08 25.7151C273.398 26.191 273.568 26.7504 273.568 27.3227C273.567 28.0893 273.262 28.8242 272.72 29.3664C272.178 29.9087 271.444 30.2141 270.677 30.2158Z" fill="#212541"/>
</g>
<defs>
<linearGradient id="paint0_linear_6167_6829" x1="116.999" y1="41.8541" x2="145.368" y2="41.8541" gradientUnits="userSpaceOnUse">
<stop stop-color="#F93C34"/>
<stop offset="1" stop-color="#D73C78"/>
</linearGradient>
<linearGradient id="paint1_linear_6167_6829" x1="356.105" y1="275.599" x2="936.452" y2="275.599" gradientUnits="userSpaceOnUse">
<stop stop-color="#F93C34"/>
<stop offset="1" stop-color="#D73C78"/>
</linearGradient>
<linearGradient id="paint2_linear_6167_6829" x1="348.839" y1="275.599" x2="892.459" y2="275.599" gradientUnits="userSpaceOnUse">
<stop stop-color="#F93C34"/>
<stop offset="1" stop-color="#D73C78"/>
</linearGradient>
<linearGradient id="paint3_linear_6167_6829" x1="388.492" y1="275.599" x2="1032.51" y2="275.599" gradientUnits="userSpaceOnUse">
<stop stop-color="#F93C34"/>
<stop offset="1" stop-color="#D73C78"/>
</linearGradient>
<linearGradient id="paint4_linear_6167_6829" x1="386.401" y1="275.441" x2="1008.13" y2="275.441" gradientUnits="userSpaceOnUse">
<stop stop-color="#F93C34"/>
<stop offset="1" stop-color="#D73C78"/>
</linearGradient>
<linearGradient id="paint5_linear_6167_6829" x1="365.46" y1="344.4" x2="909.079" y2="344.4" gradientUnits="userSpaceOnUse">
<stop stop-color="#F93C34"/>
<stop offset="1" stop-color="#D73C78"/>
</linearGradient>
<linearGradient id="paint6_linear_6167_6829" x1="387.89" y1="280.284" x2="972.24" y2="280.284" gradientUnits="userSpaceOnUse">
<stop stop-color="#F93C34"/>
<stop offset="1" stop-color="#D73C78"/>
</linearGradient>
<linearGradient id="paint7_linear_6167_6829" x1="379.316" y1="275.599" x2="922.934" y2="275.599" gradientUnits="userSpaceOnUse">
<stop stop-color="#F93C34"/>
<stop offset="1" stop-color="#D73C78"/>
</linearGradient>
<linearGradient id="paint8_linear_6167_6829" x1="411.328" y1="275.441" x2="1033.06" y2="275.441" gradientUnits="userSpaceOnUse">
<stop stop-color="#F93C34"/>
<stop offset="1" stop-color="#D73C78"/>
</linearGradient>
<linearGradient id="paint9_linear_6167_6829" x1="407.148" y1="280.324" x2="999.912" y2="280.324" gradientUnits="userSpaceOnUse">
<stop stop-color="#F93C34"/>
<stop offset="1" stop-color="#D73C78"/>
</linearGradient>
<linearGradient id="paint10_linear_6167_6829" x1="435.512" y1="275.599" x2="1095.93" y2="275.599" gradientUnits="userSpaceOnUse">
<stop stop-color="#F93C34"/>
<stop offset="1" stop-color="#D73C78"/>
</linearGradient>
<linearGradient id="paint11_linear_6167_6829" x1="401.072" y1="344.4" x2="944.586" y2="344.4" gradientUnits="userSpaceOnUse">
<stop stop-color="#F93C34"/>
<stop offset="1" stop-color="#D73C78"/>
</linearGradient>
<linearGradient id="paint12_linear_6167_6829" x1="422.307" y1="275.599" x2="1002.82" y2="275.599" gradientUnits="userSpaceOnUse">
<stop stop-color="#F93C34"/>
<stop offset="1" stop-color="#D73C78"/>
</linearGradient>
<linearGradient id="paint13_linear_6167_6829" x1="431.744" y1="280.324" x2="1024.51" y2="280.324" gradientUnits="userSpaceOnUse">
<stop stop-color="#F93C34"/>
<stop offset="1" stop-color="#D73C78"/>
</linearGradient>
<linearGradient id="paint14_linear_6167_6829" x1="447.219" y1="275.441" x2="1068.95" y2="275.441" gradientUnits="userSpaceOnUse">
<stop stop-color="#F93C34"/>
<stop offset="1" stop-color="#D73C78"/>
</linearGradient>
<linearGradient id="paint15_linear_6167_6829" x1="443.03" y1="278.095" x2="1035.69" y2="278.095" gradientUnits="userSpaceOnUse">
<stop stop-color="#F93C34"/>
<stop offset="1" stop-color="#D73C78"/>
</linearGradient>
<linearGradient id="paint16_linear_6167_6829" x1="466.209" y1="275.599" x2="1110.23" y2="275.599" gradientUnits="userSpaceOnUse">
<stop stop-color="#F93C34"/>
<stop offset="1" stop-color="#D73C78"/>
</linearGradient>
<linearGradient id="paint17_linear_6167_6829" x1="466.64" y1="275.598" x2="1097.31" y2="275.598" gradientUnits="userSpaceOnUse">
<stop stop-color="#F93C34"/>
<stop offset="1" stop-color="#D73C78"/>
</linearGradient>
<clipPath id="clip0_6167_6829">
<rect width="391" height="32.4904" fill="white" transform="translate(0 24.0002)"/>
</clipPath>
</defs>
</svg>
