<svg data-v-fdf65310="" width="23" height="23" viewBox="0 0 23 23" fill="none" xmlns="http://www.w3.org/2000/svg"
    class="lupa">
    <mask data-v-fdf65310="" id="path-1-inside-1" fill="white">
        <path data-v-fdf65310="" fill-rule="evenodd" clip-rule="evenodd"
            d="M13.4947 6.4247C15.4129 8.4111 15.3577 11.5764 13.3713 13.4947C11.3849 15.4129 8.21953 15.3577 6.30129 13.3713C4.38304 11.3849 4.43829 8.21954 6.4247 6.30129C8.4111 4.38304 11.5764 4.4383 13.4947 6.4247ZM15.5589 14.0174C17.5266 11.3202 17.3321 7.51938 14.9334 5.03538C12.2478 2.25442 7.81634 2.17707 5.03538 4.86261C2.25442 7.54816 2.17706 11.9796 4.86261 14.7606C7.3123 17.2973 11.2147 17.5845 13.992 15.577L14.9187 16.5367L15.4306 17.0667L16.8199 18.5054L16.9713 18.3591L18.2586 17.1161L18.41 16.9698L17.0207 15.5311L16.5088 15.0011L15.5589 14.0174Z">
        </path>
    </mask>
    <path data-v-fdf65310=""
        d="M15.5589 14.0174L13.9432 12.8387L12.9522 14.1972L14.1203 15.4068L15.5589 14.0174ZM13.992 15.577L15.4307 14.1877L14.226 12.9402L12.8204 13.9561L13.992 15.577ZM14.9187 16.5367L16.3574 15.1473L14.9187 16.5367ZM15.4306 17.0667L16.8693 15.6774L15.4306 17.0667ZM16.8199 18.5054L15.3812 19.8947L16.7705 21.3334L18.2092 19.9441L16.8199 18.5054ZM16.9713 18.3591L15.582 16.9205L16.9713 18.3591ZM18.2586 17.1161L19.6479 18.5547L18.2586 17.1161ZM18.41 16.9698L19.7993 18.4085L21.238 17.0192L19.8487 15.5805L18.41 16.9698ZM17.0207 15.5311L15.582 16.9205L17.0207 15.5311ZM16.5088 15.0011L17.9475 13.6118L16.5088 15.0011ZM14.7606 14.9334C17.5416 12.2478 17.6189 7.81634 14.9334 5.03538L12.056 7.81401C13.207 9.00586 13.1738 10.9051 11.982 12.056L14.7606 14.9334ZM4.86261 14.7606C7.54815 17.5416 11.9796 17.6189 14.7606 14.9334L11.982 12.056C10.7901 13.207 8.89092 13.1738 7.73997 11.982L4.86261 14.7606ZM5.03538 4.86261C2.25442 7.54816 2.17706 11.9796 4.86261 14.7606L7.73997 11.982C6.58902 10.7901 6.62217 8.89092 7.81401 7.73997L5.03538 4.86261ZM14.9334 5.03538C12.2478 2.25442 7.81634 2.17707 5.03538 4.86261L7.81401 7.73997C9.00585 6.58902 10.9051 6.62217 12.056 7.81401L14.9334 5.03538ZM17.1747 15.1961C19.7054 11.7271 19.4576 6.84125 16.372 3.64606L13.4947 6.4247C15.2067 8.1975 15.3478 10.9133 13.9432 12.8387L17.1747 15.1961ZM16.372 3.64606C12.9192 0.0705403 7.22159 -0.0289119 3.64606 3.42393L6.4247 6.30129C8.4111 4.38304 11.5764 4.4383 13.4947 6.4247L16.372 3.64606ZM3.64606 3.42393C0.0705382 6.87677 -0.0289139 12.5744 3.42393 16.1499L6.30129 13.3713C4.38304 11.3849 4.43829 8.21954 6.4247 6.30129L3.64606 3.42393ZM3.42393 16.1499C6.57473 19.4127 11.5913 19.78 15.1636 17.1979L12.8204 13.9561C10.8382 15.3889 8.04987 15.182 6.30129 13.3713L3.42393 16.1499ZM12.5533 16.9664L13.48 17.926L16.3574 15.1473L15.4307 14.1877L12.5533 16.9664ZM13.48 17.926L13.9919 18.456L16.8693 15.6774L16.3574 15.1473L13.48 17.926ZM13.9919 18.456L15.3812 19.8947L18.2586 17.1161L16.8693 15.6774L13.9919 18.456ZM18.2092 19.9441L18.3606 19.7978L15.582 16.9205L15.4306 17.0667L18.2092 19.9441ZM18.3606 19.7978L19.6479 18.5547L16.8693 15.6774L15.582 16.9205L18.3606 19.7978ZM19.6479 18.5547L19.7993 18.4085L17.0207 15.5311L16.8693 15.6774L19.6479 18.5547ZM19.8487 15.5805L18.4594 14.1418L15.582 16.9205L16.9713 18.3591L19.8487 15.5805ZM18.4594 14.1418L17.9475 13.6118L15.0702 16.3904L15.582 16.9205L18.4594 14.1418ZM17.9475 13.6118L16.9976 12.6281L14.1203 15.4068L15.0702 16.3904L17.9475 13.6118Z"
        fill="#DDE3E8" mask="url(#path-1-inside-1)"></path>
</svg>