<svg width="25" height="24" viewBox="0 0 25 24" fill="none" xmlns="http://www.w3.org/2000/svg">
<path fill-rule="evenodd" clip-rule="evenodd" d="M3.7999 0.400024C3.03077 0.400024 2.29315 0.705559 1.74929 1.24941C1.20544 1.79327 0.899902 2.5309 0.899902 3.30002V19.25C0.899902 20.4037 1.3582 21.5102 2.17399 22.3259C2.98977 23.1417 4.09621 23.6 5.2499 23.6C6.40359 23.6 7.51003 23.1417 8.32582 22.3259C9.1416 21.5102 9.5999 20.4037 9.5999 19.25V3.30002C9.5999 2.5309 9.29437 1.79327 8.75051 1.24941C8.20666 0.705559 7.46903 0.400024 6.6999 0.400024H3.7999ZM5.2499 20.7C5.63447 20.7 6.00328 20.5473 6.27521 20.2753C6.54713 20.0034 6.6999 19.6346 6.6999 19.25C6.6999 18.8655 6.54713 18.4966 6.27521 18.2247C6.00328 17.9528 5.63447 17.8 5.2499 17.8C4.86534 17.8 4.49653 17.9528 4.2246 18.2247C3.95267 18.4966 3.7999 18.8655 3.7999 19.25C3.7999 19.6346 3.95267 20.0034 4.2246 20.2753C4.49653 20.5473 4.86534 20.7 5.2499 20.7ZM12.4999 18.1524L19.6049 11.0474C20.1486 10.5035 20.454 9.76605 20.454 8.99707C20.454 8.2281 20.1486 7.4906 19.6049 6.94677L17.5532 4.89502C17.0093 4.35136 16.2718 4.04594 15.5029 4.04594C14.7339 4.04594 13.9964 4.35136 13.4526 4.89502L12.4999 5.84767V18.1524ZM21.1999 23.6H11.1529L19.8529 14.9H21.1999C21.969 14.9 22.7067 15.2056 23.2505 15.7494C23.7944 16.2933 24.0999 17.0309 24.0999 17.8V20.7C24.0999 21.4692 23.7944 22.2068 23.2505 22.7506C22.7067 23.2945 21.969 23.6 21.1999 23.6V23.6Z" fill="white"/>
</svg>
